<?xml version="1.0" encoding="UTF-8" standalone="no"?>
<!-- Created with Inkscape (http://www.inkscape.org/) -->

<svg
   width="14mm"
   height="14mm"
   viewBox="0 0 14 14"
   version="1.1"
   id="svg1"
   xml:space="preserve"
   inkscape:version="1.3 (0e150ed, 2023-07-21)"
   sodipodi:docname="distributor-logo-symbolic.svg.svg"
   xmlns:inkscape="http://www.inkscape.org/namespaces/inkscape"
   xmlns:sodipodi="http://sodipodi.sourceforge.net/DTD/sodipodi-0.dtd"
   xmlns="http://www.w3.org/2000/svg"
   xmlns:svg="http://www.w3.org/2000/svg"><sodipodi:namedview
     id="namedview1"
     pagecolor="#ffffff"
     bordercolor="#000000"
     borderopacity="0.25"
     inkscape:showpageshadow="2"
     inkscape:pageopacity="0.0"
     inkscape:pagecheckerboard="0"
     inkscape:deskcolor="#d1d1d1"
     inkscape:document-units="mm"
     inkscape:zoom="13.513147"
     inkscape:cx="19.832537"
     inkscape:cy="25.345687"
     inkscape:window-width="1920"
     inkscape:window-height="992"
     inkscape:window-x="0"
     inkscape:window-y="23"
     inkscape:window-maximized="1"
     inkscape:current-layer="layer1" /><defs
     id="defs1"><inkscape:path-effect
       effect="lattice2"
       gridpoint0="102.63241,148.20168"
       gridpoint1="107.24798,148.20902"
       gridpoint2="102.8773,149.25711"
       gridpoint3="107.12658,149.23561"
       gridpoint4="103.79272,148.20168"
       gridpoint5="106.11333,148.20168"
       gridpoint6="103.79272,149.26057"
       gridpoint7="106.11333,149.26057"
       gridpoint8x9="105.04392,146.78716"
       gridpoint10x11="105.03934,150.27594"
       gridpoint12="102.63241,148.4664"
       gridpoint13="107.27363,148.4664"
       gridpoint14="102.73543,149.00259"
       gridpoint15="107.27363,148.99585"
       gridpoint16="103.79272,148.4664"
       gridpoint17="106.11333,148.4664"
       gridpoint18="103.79272,148.99585"
       gridpoint19="106.11333,148.99585"
       gridpoint20x21="104.95302,148.4664"
       gridpoint22x23="104.95302,148.99585"
       gridpoint24x26="102.6838,148.7257"
       gridpoint25x27="107.27363,148.73113"
       gridpoint28x30="103.79272,148.73113"
       gridpoint29x31="106.11333,148.73113"
       gridpoint32x33x34x35="104.95302,148.73113"
       id="path-effect2"
       is_visible="true"
       lpeversion="1"
       horizontal_mirror="false"
       vertical_mirror="false"
       perimetral="false"
       live_update="true" /><inkscape:path-effect
       effect="bend_path"
       id="path-effect1"
       is_visible="true"
       lpeversion="1"
       bendpath="m 102.63241,148.73113 4.74891,0.0489"
       prop_scale="1"
       scale_y_rel="false"
       vertical="false"
       hide_knot="false"
       bendpath-nodetypes="cc" /></defs><g
     inkscape:label="Layer 1"
     inkscape:groupmode="layer"
     id="layer1"><path
       d="m 103.17348,149.32157 c -0.0927,-0.0372 -0.15817,-0.0892 -0.20194,-0.16572 -0.0449,-0.0784 -0.0602,-0.16478 -0.0787,-0.28386 -0.0189,-0.12197 -0.0314,-0.2107 -0.004,-0.28557 0.0262,-0.0724 0.0826,-0.12251 0.17273,-0.14823 0.11125,-0.0317 0.21277,-0.0125 0.29799,0.10699 9.9e-4,-2.4e-4 0.003,-7.3e-4 0.003,-7.3e-4 -0.0488,-0.18953 -0.15267,-0.56625 -0.15267,-0.56625 0.0307,-0.0222 0.0922,-0.0693 0.0922,-0.0693 0.0374,0.25793 0.17783,0.6427 0.20636,0.96752 0.0286,0.32602 -0.0149,0.58203 -0.0149,0.58203 -0.0284,-0.0169 -0.0851,-0.0489 -0.0851,-0.0489 0.006,-0.0507 0.015,-0.15315 0.015,-0.15315 -9.6e-4,-4e-4 -0.003,-0.001 -0.003,-0.001 -0.0649,0.10102 -0.14844,0.10581 -0.24671,0.0664 0,0 -3e-5,-1e-5 -3e-5,-1e-5 z m 0.014,-0.0825 c 0.0749,0.0252 0.13694,0.0189 0.18384,-0.0426 0.0459,-0.0612 0.0717,-0.16545 0.0602,-0.29982 -0.0113,-0.13335 -0.0555,-0.23974 -0.11886,-0.30807 -0.0632,-0.0695 -0.13555,-0.0851 -0.21258,-0.0676 -0.0707,0.016 -0.11114,0.0563 -0.12742,0.11881 -0.017,0.0629 -0.009,0.13718 0.005,0.23417 0.0138,0.0944 0.0277,0.16797 0.0593,0.23377 0.0317,0.0642 0.08,0.10761 0.15045,0.13126 0,0 -7e-5,3e-5 -7e-5,3e-5 z m 0.45206,0.30986 c 0.0218,-0.24878 0.039,-0.49513 0.003,-0.80068 -0.0313,-0.26785 -0.0867,-0.47961 -0.0867,-0.47961 0.0299,-0.0136 0.0898,-0.0413 0.0898,-0.0413 0.0545,0.2699 0.10058,0.53146 0.10324,0.86135 0.002,0.28863 -0.0239,0.51563 -0.0239,0.51563 -0.0286,-0.0186 -0.0572,-0.0371 -0.0857,-0.0554 z m -0.14309,-1.5512 c -0.0147,-0.0722 -0.0363,-0.21693 -0.0363,-0.21693 0.0309,-0.0258 0.0928,-0.0784 0.0928,-0.0784 0.008,0.0779 0.0351,0.2334 0.0351,0.2334 -0.0305,0.0208 -0.0611,0.0416 -0.0916,0.0619 z m 0.56519,1.86689 c -0.0688,-0.0447 -0.12286,-0.12452 -0.16089,-0.22427 -0.0383,-0.10053 -0.0526,-0.21305 -0.0484,-0.34837 0.003,-0.0849 0.01,-0.15451 0.0229,-0.21073 0.014,-0.0579 0.0346,-0.1031 0.0629,-0.1355 0.0293,-0.0323 0.0586,-0.0576 0.0884,-0.0741 0.0306,-0.0186 0.0689,-0.035 0.11459,-0.0488 0.0768,-0.0232 0.127,-0.051 0.15055,-0.08 0.0243,-0.0315 0.0343,-0.0963 0.0276,-0.19267 -8.9e-4,-0.013 -0.003,-0.039 -0.003,-0.039 -0.02,-0.27587 -0.0955,-0.38774 -0.21318,-0.34589 -0.13532,0.0481 -0.17925,0.20366 -0.16172,0.4392 -0.0287,0.004 -0.0861,0.0124 -0.0861,0.0124 -0.0125,-0.15334 -0.005,-0.27818 0.0311,-0.39098 0.0356,-0.11029 0.10111,-0.19694 0.19446,-0.23889 0.17402,-0.0782 0.29071,0.0947 0.31942,0.5375 0.0246,0.37897 0.0121,1.13764 0.0121,1.13764 -0.004,0.11531 0.008,0.18275 0.0384,0.2007 0.004,0.002 0.0152,2.6e-4 0.032,-0.005 0.001,4.8e-4 0.004,0.001 0.004,0.001 -0.003,0.0624 -0.009,0.18697 -0.009,0.18697 -0.0174,0.0149 -0.037,0.0167 -0.0588,0.006 -0.066,-0.0326 -0.0942,-0.14896 -0.0894,-0.33796 6.4e-4,-0.0143 0.002,-0.043 0.002,-0.043 -0.001,-5.1e-4 -0.004,-0.002 -0.004,-0.002 -0.0672,0.20825 -0.15756,0.26477 -0.26612,0.19423 0,0 -4e-5,8e-4 -5e-5,8.1e-4 z m 0.0254,-0.16112 c 0.0737,0.0399 0.13419,0.0168 0.18135,-0.0804 0.0478,-0.0985 0.0735,-0.22994 0.0743,-0.38107 6.8e-4,-0.12131 -0.005,-0.36391 -0.005,-0.36391 -0.0333,0.0539 -0.0937,0.0935 -0.18172,0.11532 -0.0294,0.007 -0.0527,0.0135 -0.0701,0.02 -0.0165,0.008 -0.035,0.0186 -0.0561,0.0325 -0.02,0.0145 -0.0354,0.0322 -0.0463,0.0534 -0.01,0.0215 -0.019,0.0511 -0.0276,0.0884 -0.008,0.0376 -0.0121,0.0829 -0.0136,0.13657 -0.006,0.18894 0.0374,0.32082 0.14476,0.3789 0,0 1e-4,2.5e-4 1e-4,2.5e-4 z m 0.46815,0.38073 c 0.0355,-0.73496 -0.04,-2.21549 -0.04,-2.21549 0.0293,-0.008 0.0876,-0.0236 0.0876,-0.0236 0.009,0.114 0.0261,0.34211 0.0261,0.34211 9.8e-4,-1.6e-4 0.003,-4.8e-4 0.003,-4.8e-4 0.0336,-0.26845 0.0954,-0.42187 0.19017,-0.43576 0.0455,-0.007 0.0878,0.0275 0.1265,0.10258 0.0384,0.0718 0.0684,0.17856 0.0888,0.31777 9.5e-4,-2e-5 0.003,-6e-5 0.003,-6e-5 0.0342,-0.29315 0.101,-0.44065 0.20189,-0.43019 0.0612,0.006 0.11476,0.0813 0.1591,0.21714 0.044,0.13242 0.0703,0.31245 0.0754,0.53802 0.0123,0.54764 -0.026,1.64244 -0.026,1.64244 -0.0258,0.008 -0.0775,0.0221 -0.0775,0.0221 0.0235,-0.54713 0.025,-1.64679 0.025,-1.64679 -0.004,-0.16932 -0.022,-0.29857 -0.0517,-0.3864 -0.03,-0.0912 -0.0673,-0.13985 -0.11098,-0.14297 -0.0529,-0.004 -0.0944,0.057 -0.12534,0.18125 -0.0303,0.12181 -0.0404,0.28584 -0.0351,0.49493 0.0129,0.51218 -0.0232,1.53533 -0.0232,1.53533 -0.027,-7.7e-4 -0.0812,-0.005 -0.0812,-0.005 0.0242,-0.55878 0.0171,-1.68298 0.0171,-1.68298 -0.006,-0.17323 -0.0263,-0.30373 -0.0574,-0.3881 -0.0305,-0.088 -0.0678,-0.1293 -0.11097,-0.124 -0.0524,0.006 -0.0946,0.0795 -0.12683,0.21283 -0.0325,0.13088 -0.0432,0.28268 -0.0362,0.46148 0.0189,0.48226 -0.017,1.44544 -0.017,1.44544 -0.0279,-0.01 -0.0559,-0.0202 -0.0839,-0.0314 z m 1.42298,-0.37793 c 0.10078,-0.0581 0.18806,-0.21362 0.25141,-0.40911 0.0653,-0.20118 0.10271,-0.41062 0.10594,-0.65895 0.003,-0.248 -0.0284,-0.4654 -0.0905,-0.68119 -0.0603,-0.21388 -0.14835,-0.3949 -0.25782,-0.48119 -0.11033,-0.087 -0.19416,-0.0355 -0.2478,0.17838 -0.0539,0.21192 -0.0692,0.51495 -0.0635,0.89766 0.006,0.37849 0.029,0.69768 0.0779,0.9207 0.0498,0.22373 0.12181,0.29284 0.22435,0.2337 z m -0.0109,0.21404 c -0.12354,0.0881 -0.21347,0.017 -0.27949,-0.25125 -0.064,-0.2637 -0.0931,-0.65744 -0.10129,-1.12494 -0.008,-0.47416 0.01,-0.84721 0.0836,-1.10254 0.0744,-0.25333 0.1832,-0.30128 0.31676,-0.18004 0.13187,0.11971 0.24118,0.35683 0.32001,0.61233 0.0805,0.26082 0.12112,0.50334 0.11585,0.77737 -0.005,0.27404 -0.0552,0.50596 -0.14105,0.74414 -0.0841,0.23322 -0.19386,0.439 -0.31436,0.52493 z m 0.83811,-0.60163 c -0.11431,0.0553 -0.19278,0.0779 -0.24751,0.0135 -0.053,-0.0639 -0.0757,-0.19411 -0.0725,-0.36854 0.0275,-0.004 0.0825,-0.0129 0.0825,-0.0129 -0.003,0.13105 0.0154,0.22527 0.0578,0.27136 0.044,0.0452 0.10542,0.0374 0.19043,0.004 0.0665,-0.0264 0.12646,-0.0634 0.17298,-0.1078 0.0477,-0.0464 0.0756,-0.0983 0.0831,-0.16519 0.007,-0.0664 -0.008,-0.1127 -0.0464,-0.14143 -0.0387,-0.0296 -0.10752,-0.0553 -0.21262,-0.0935 -0.0934,-0.0335 -0.16154,-0.0853 -0.2083,-0.15668 -0.0452,-0.07 -0.0678,-0.17871 -0.0661,-0.31311 0.002,-0.1322 0.0314,-0.21681 0.0926,-0.24419 0.0624,-0.0279 0.13911,0.008 0.23737,0.0725 0.10172,0.0665 0.18603,0.13214 0.23619,0.19674 0.0538,0.0672 0.0799,0.13531 0.0789,0.22534 -0.0295,-0.001 -0.0879,-0.007 -0.0879,-0.007 -0.001,-0.0713 -0.0227,-0.1278 -0.0648,-0.18032 -0.0402,-0.052 -0.098,-0.0992 -0.16735,-0.13888 -0.0736,-0.0421 -0.13017,-0.0618 -0.17409,-0.0415 -0.0432,0.0187 -0.065,0.0726 -0.0668,0.1582 -0.002,0.0851 0.0158,0.15574 0.0519,0.20493 0.0372,0.0483 0.0995,0.095 0.18802,0.13192 0.042,0.0171 0.0748,0.0301 0.10236,0.0423 0.0268,0.0108 0.0554,0.0256 0.085,0.0432 0.0298,0.0168 0.0523,0.0343 0.0676,0.054 0.0162,0.0197 0.0286,0.0445 0.0373,0.0749 0.009,0.0303 0.0106,0.0657 0.006,0.10618 -0.0105,0.089 -0.0489,0.15454 -0.11532,0.216 -0.062,0.058 -0.14909,0.11236 -0.2401,0.15638 0,0 -5e-5,2.1e-4 -5e-5,2.1e-4 z"
       id="text1"
       style="font-size:1.42322px;font-family:'Neue Haas Grotesk Display Pro';-inkscape-font-specification:'Neue Haas Grotesk Display Pro, Normal';fill:#666666;stroke-width:0.0448427;stroke-linecap:round"
       aria-label="diamOS"
       inkscape:path-effect="#path-effect2"
       inkscape:original-d="m 102.94979,149.26057 q -0.14659,0 -0.23198,-0.10674 -0.0854,-0.10674 -0.0854,-0.27895 0,-0.1779 0.0897,-0.2818 0.0897,-0.10389 0.22487,-0.10389 0.16651,0 0.24194,0.13805 h 0.003 v -0.40419 h 0.0882 v 1.0176 h -0.0882 v -0.10959 h -0.003 q -0.084,0.12951 -0.2391,0.12951 z m 0.003,-0.074 q 0.11813,0 0.18217,-0.084 0.0641,-0.0854 0.0641,-0.2263 0,-0.13947 -0.0655,-0.22629 -0.064,-0.0868 -0.18075,-0.0868 -0.10674,0 -0.16794,0.0868 -0.0612,0.0854 -0.0612,0.22629 0,0.13663 0.0584,0.22345 0.0598,0.0868 0.17079,0.0868 z m 0.4782,0.0541 v -0.73581 h 0.0882 v 0.73581 z m 0,-0.89236 v -0.12524 h 0.0882 v 0.12524 z m 0.43693,0.90944 q -0.10675,0 -0.17364,-0.0527 -0.0669,-0.0527 -0.0669,-0.15229 0,-0.0626 0.0214,-0.10532 0.0228,-0.0441 0.0683,-0.0683 0.047,-0.0242 0.0939,-0.0356 0.0484,-0.0128 0.11955,-0.0213 0.11955,-0.0142 0.15798,-0.0299 0.0399,-0.0171 0.0399,-0.0697 v -0.0142 q 0,-0.14801 -0.17648,-0.14801 -0.19641,0 -0.20637,0.16367 h -0.0868 q 0.007,-0.10959 0.0811,-0.17221 0.074,-0.0626 0.21206,-0.0626 0.26045,0 0.26045,0.22771 v 0.39993 q 0,0.0612 0.0484,0.064 0.007,0 0.0327,-0.006 h 0.004 v 0.064 q -0.0256,0.0114 -0.0598,0.0114 -0.10247,0 -0.10816,-0.10389 v -0.0157 h -0.004 q -0.0897,0.12667 -0.2576,0.12667 z m 0.0156,-0.0712 q 0.11386,0 0.17933,-0.0641 0.0669,-0.0655 0.0669,-0.14801 v -0.13236 q -0.0541,0.0299 -0.19071,0.0484 -0.0456,0.006 -0.0726,0.0114 -0.0256,0.006 -0.0584,0.0171 -0.0313,0.0114 -0.0484,0.027 -0.0156,0.0157 -0.0285,0.0427 -0.0114,0.027 -0.0114,0.064 0,0.13379 0.16367,0.13379 z m 0.49528,0.0541 v -0.73581 h 0.0882 v 0.11101 h 0.003 q 0.0797,-0.12666 0.22344,-0.12666 0.0697,0 0.1224,0.0356 0.0527,0.0342 0.074,0.0982 h 0.003 q 0.0769,-0.13378 0.23626,-0.13378 0.0968,0 0.1594,0.0612 0.0626,0.0598 0.0626,0.16794 v 0.52232 h -0.0868 v -0.51521 q 0,-0.0797 -0.0427,-0.11955 -0.0427,-0.0413 -0.11244,-0.0413 -0.084,0 -0.14232,0.0569 -0.0569,0.0555 -0.0569,0.15086 v 0.46824 h -0.0882 v -0.51521 q 0,-0.0797 -0.0413,-0.11955 -0.0399,-0.0413 -0.10674,-0.0413 -0.0811,0 -0.14375,0.0612 -0.0626,0.0598 -0.0626,0.14659 v 0.46824 z m 1.56554,-0.0655 q 0.1779,0 0.2761,-0.12524 0.0996,-0.12667 0.0996,-0.3188 0,-0.19214 -0.0996,-0.31738 -0.0982,-0.12667 -0.2761,-0.12667 -0.17648,0 -0.27468,0.12667 -0.0982,0.12524 -0.0982,0.31738 0,0.19213 0.0982,0.3188 0.0982,0.12524 0.27468,0.12524 z m 0,0.0854 q -0.21206,0 -0.343,-0.14944 -0.12951,-0.14943 -0.12951,-0.37999 0,-0.23057 0.12951,-0.38 0.13094,-0.14944 0.343,-0.14944 0.21348,0 0.34442,0.14944 0.13094,0.14943 0.13094,0.38 0,0.23056 -0.13094,0.37999 -0.13094,0.14944 -0.34442,0.14944 z m 0.97063,-0.001 q -0.19213,0 -0.29745,-0.0954 -0.10532,-0.0968 -0.11386,-0.25333 h 0.0954 q 0.007,0.12809 0.0897,0.19925 0.084,0.0697 0.22772,0.0697 0.11528,0 0.18786,-0.0555 0.0726,-0.0569 0.0726,-0.15797 0,-0.10105 -0.0683,-0.14375 -0.0669,-0.0427 -0.24479,-0.0783 -0.1594,-0.0313 -0.24053,-0.0897 -0.0797,-0.0583 -0.0797,-0.18217 0,-0.12097 0.0939,-0.19498 0.0939,-0.074 0.24621,-0.074 0.16367,0 0.25334,0.0811 0.0911,0.0797 0.10532,0.21633 h -0.0925 q -0.0128,-0.10531 -0.084,-0.16082 -0.0697,-0.0569 -0.18075,-0.0569 -0.11528,0 -0.18217,0.0512 -0.0669,0.0498 -0.0669,0.1352 0,0.0854 0.0626,0.12525 0.064,0.0384 0.21348,0.0669 0.0697,0.0128 0.11528,0.0256 0.0455,0.0114 0.0968,0.0356 0.0512,0.0228 0.0797,0.0526 0.0299,0.0299 0.0498,0.0769 0.0199,0.047 0.0199,0.10959 0,0.1352 -0.0996,0.21633 -0.0982,0.0811 -0.25903,0.0811 z"
       transform="matrix(3.2385253,0,0,4.2432124,-333.13699,-623.95302)" /></g></svg>
